HIERARCHY
ROOT Hips
{
  OFFSET 5.84602e-005 68.8428 3.50346
  CHANNELS 6 Xposition Yposition Zposition Zrotation Xrotation Yrotation
  JOINT Spine
  {
    OFFSET 0 8.597 -4.6522
    CHANNELS 3 Zrotation Xrotation Yrotation
    JOINT Spine1
    {
      OFFSET 0 7.8454 0.4098
      CHANNELS 3 Zrotation Xrotation Yrotation
      JOINT Spine2
      {
        OFFSET 0 9.7078 -2.1609
        CHANNELS 3 Zrotation Xrotation Yrotation
        JOINT Neck
        {
          OFFSET 0 21.8761 -0.4549
          CHANNELS 3 Zrotation Xrotation Yrotation
          JOINT Head
          {
            OFFSET 0 12.3537 3.3602
            CHANNELS 3 Zrotation Xrotation Yrotation
            End Site
            {
              OFFSET 0.0001 18.9506 0.5657
            }
          }
        }
        JOINT LeftShoulder
        {
          OFFSET 2.2086 21.1115 7.2329
          CHANNELS 3 Zrotation Xrotation Yrotation
          JOINT LeftArm
          {
            OFFSET 13.1193 3.0282 -4.8998
            CHANNELS 3 Zrotation Xrotation Yrotation
            JOINT LeftForeArm
            {
              OFFSET 27.4081 -0.0973053 -0.2375
              CHANNELS 3 Zrotation Xrotation Yrotation
              JOINT LeftHand
              {
                OFFSET 22.8641 0.0662994 -0.1369
                CHANNELS 3 Zrotation Xrotation Yrotation
                JOINT LeftHandIndex1
                {
                  OFFSET 8.8614 0.775009 2.4612
                  CHANNELS 3 Zrotation Xrotation Yrotation
                  JOINT LeftHandIndex2
                  {
                    OFFSET 3.3146 -0.808304 0.5841
                    CHANNELS 3 Zrotation Xrotation Yrotation
                    JOINT LeftHandIndex3
                    {
                      OFFSET 2.2628 -0.552002 0.3989
                      CHANNELS 3 Zrotation Xrotation Yrotation
                      End Site
                      {
                        OFFSET 1.6102 -0.4807 0.2612
                      }
                    }
                  }
                }
                JOINT LeftHandMiddle1
                {
                  OFFSET 8.9937 0.895004 0.2143
                  CHANNELS 3 Zrotation Xrotation Yrotation
                  JOINT LeftHandMiddle2
                  {
                    OFFSET 4.0984 0.0113983 -0.0242
                    CHANNELS 3 Zrotation Xrotation Yrotation
                    JOINT LeftHandMiddle3
                    {
                      OFFSET 2.2716 0.00689697 -0.0138001
                      CHANNELS 3 Zrotation Xrotation Yrotation
                      End Site
                      {
                        OFFSET 2.0404 -0.1441 0.0027
                      }
                    }
                  }
                }
                JOINT LeftHandRing1
                {
                  OFFSET 8.5234 0.597198 -2.0164
                  CHANNELS 3 Zrotation Xrotation Yrotation
                  JOINT LeftHandRing2
                  {
                    OFFSET 3.7188 -0.188293 -0.2328
                    CHANNELS 3 Zrotation Xrotation Yrotation
                    JOINT LeftHandRing3
                    {
                      OFFSET 2.1191 -0.106598 -0.1332
                      CHANNELS 3 Zrotation Xrotation Yrotation
                      End Site
                      {
                        OFFSET 1.8737 -0.2304 -0.0886
                      }
                    }
                  }
                }
                JOINT LeftHandPinky1
                {
                  OFFSET 7.9094 -0.601089 -3.4825
                  CHANNELS 3 Zrotation Xrotation Yrotation
                  JOINT LeftHandPinky2
                  {
                    OFFSET 2.2874 -0.477005 -0.6314
                    CHANNELS 3 Zrotation Xrotation Yrotation
                    JOINT LeftHandPinky3
                    {
                      OFFSET 1.6774 -0.349396 -0.4633
                      CHANNELS 3 Zrotation Xrotation Yrotation
                      End Site
                      {
                        OFFSET 1.4888 -0.4091 -0.3416
                      }
                    }
                  }
                }
                JOINT LeftHandThumb1
                {
                  OFFSET 1.833 -1.3875 1.3896
                  CHANNELS 3 Zrotation Xrotation Yrotation
                  JOINT LeftHandThumb2
                  {
                    OFFSET 3.4129 -1.121 2.5732
                    CHANNELS 3 Zrotation Xrotation Yrotation
                    JOINT LeftHandThumb3
                    {
                      OFFSET 2.2474 -0.804199 1.6192
                      CHANNELS 3 Zrotation Xrotation Yrotation
                      End Site
                      {
                        OFFSET 1.6527 -0.5689 1.1317
                      }
                    }
                  }
                }
              }
            }
          }
        }
        JOINT RightShoulder
        {
          OFFSET -2.2086 21.1115 7.2329
          CHANNELS 3 Zrotation Xrotation Yrotation
          JOINT RightArm
          {
            OFFSET -13.1216 3.0287 -4.9007
            CHANNELS 3 Zrotation Xrotation Yrotation
            JOINT RightForeArm
            {
              OFFSET -27.4081 -0.0973053 -0.2375
              CHANNELS 3 Zrotation Xrotation Yrotation
              JOINT RightHand
              {
                OFFSET -22.8641 0.0664063 -0.1369
                CHANNELS 3 Zrotation Xrotation Yrotation
                JOINT RightHandIndex1
                {
                  OFFSET -8.8614 0.774994 2.4612
                  CHANNELS 3 Zrotation Xrotation Yrotation
                  JOINT RightHandIndex2
                  {
                    OFFSET -3.3146 -0.808304 0.5841
                    CHANNELS 3 Zrotation Xrotation Yrotation
                    JOINT RightHandIndex3
                    {
                      OFFSET -2.2628 -0.552002 0.3989
                      CHANNELS 3 Zrotation Xrotation Yrotation
                      End Site
                      {
                        OFFSET -1.6102 -0.4807 0.2612
                      }
                    }
                  }
                }
                JOINT RightHandMiddle1
                {
                  OFFSET -8.9937 0.894989 0.2143
                  CHANNELS 3 Zrotation Xrotation Yrotation
                  JOINT RightHandMiddle2
                  {
                    OFFSET -4.0984 0.0113983 -0.0242
                    CHANNELS 3 Zrotation Xrotation Yrotation
                    JOINT RightHandMiddle3
                    {
                      OFFSET -2.2716 0.00691223 -0.0138001
                      CHANNELS 3 Zrotation Xrotation Yrotation
                      End Site
                      {
                        OFFSET -2.0404 -0.1441 0.0027
                      }
                    }
                  }
                }
                JOINT RightHandRing1
                {
                  OFFSET -8.5234 0.597198 -2.0164
                  CHANNELS 3 Zrotation Xrotation Yrotation
                  JOINT RightHandRing2
                  {
                    OFFSET -3.7188 -0.188309 -0.2328
                    CHANNELS 3 Zrotation Xrotation Yrotation
                    JOINT RightHandRing3
                    {
                      OFFSET -2.1191 -0.106598 -0.1332
                      CHANNELS 3 Zrotation Xrotation Yrotation
                      End Site
                      {
                        OFFSET -1.8737 -0.2304 -0.0886
                      }
                    }
                  }
                }
                JOINT RightHandPinky1
                {
                  OFFSET -7.9094 -0.601105 -3.4825
                  CHANNELS 3 Zrotation Xrotation Yrotation
                  JOINT RightHandPinky2
                  {
                    OFFSET -2.2874 -0.477005 -0.6314
                    CHANNELS 3 Zrotation Xrotation Yrotation
                    JOINT RightHandPinky3
                    {
                      OFFSET -1.6774 -0.349396 -0.4633
                      CHANNELS 3 Zrotation Xrotation Yrotation
                      End Site
                      {
                        OFFSET -1.4888 -0.4091 -0.3416
                      }
                    }
                  }
                }
                JOINT RightHandThumb1
                {
                  OFFSET -1.833 -1.38751 1.3896
                  CHANNELS 3 Zrotation Xrotation Yrotation
                  JOINT RightHandThumb2
                  {
                    OFFSET -3.41299 -1.12099 2.5732
                    CHANNELS 3 Zrotation Xrotation Yrotation
                    JOINT RightHandThumb3
                    {
                      OFFSET -2.24741 -0.804108 1.6192
                      CHANNELS 3 Zrotation Xrotation Yrotation
                      End Site
                      {
                        OFFSET -1.6527 -0.5689 1.1317
                      }
                    }
                  }
                }
              }
            }
          }
        }
      }
    }
  }
  JOINT RightUpLeg
  {
    OFFSET -9.1966 3.8861 -0.7581
    CHANNELS 3 Zrotation Xrotation Yrotation
    JOINT RightLeg
    {
      OFFSET -0.7359 -41.0265 0
      CHANNELS 3 Zrotation Xrotation Yrotation
      JOINT RightFoot
      {
        OFFSET 0 -40.2855 0
        CHANNELS 3 Zrotation Xrotation Yrotation
        JOINT RightToeBase
        {
          OFFSET 0 -5.6122 11.7359
          CHANNELS 3 Zrotation Xrotation Yrotation
          End Site
          {
            OFFSET 0 0 7.8731
          }
        }
      }
    }
  }
  JOINT LeftUpLeg
  {
    OFFSET 9.1965 3.8864 -0.7581
    CHANNELS 3 Zrotation Xrotation Yrotation
    JOINT LeftLeg
    {
      OFFSET 0.7359 -41.0268 0
      CHANNELS 3 Zrotation Xrotation Yrotation
      JOINT LeftFoot
      {
        OFFSET 0 -40.2855 0
        CHANNELS 3 Zrotation Xrotation Yrotation
        JOINT LeftToeBase
        {
          OFFSET 0 -5.6122 11.7359
          CHANNELS 3 Zrotation Xrotation Yrotation
          End Site
          {
            OFFSET 0 0 7.8731
          }
        }
      }
    }
  }
}
MOTION
Frames:	4
Frame Time:	0.0333333
5.84602e-005 68.8428 3.50346 0 0 -0 0 0 -0 0 0 -0 0 0 -0 0 0 -0 0 0 -0 0 0 -0 0 0 -0 0 0 -0 0 0 -0 0 0 -0 0 0 -0 0 0 -0 0 0 -0 -0.0146107 -8.87603e-005 -2.63497e-007 2.99804e-018 -2.42657e-020 -1.42182e-022 0 0 -0 -0.0187562 -0.001176 5.858e-005 5.06224e-018 3.88251e-019 1.21329e-020 0 0 -0 -0.012269 -0.00324817 0.000675346 -1.74678e-018 3.88251e-019 -0 0 0 -0 0 0 -0 0 0 -0 0 0 -0 0 0 -0 0 0 -0 0 0 -0 0 0 -0 0 0 -0 0 0 -0 0 0 -0 0.0149955 -9.10982e-005 2.64101e-007 -9.69331e-018 1.21329e-020 -4.7394e-023 0 0 -0 0.0189956 -0.00119102 -5.96516e-005 -5.41541e-019 0 2.42657e-020 0 0 -0 0.0122698 -0.00324857 -0.000673756 -2.00796e-019 0 -1.94126e-019 0 0 -0 0 0 -0 0 0 -0 3.39842 1.33031 -0.0637918 -5.65207e-008 0.834868 -0.000436188 -3.39935 -2.16518 -0.0642563 -8.89002e-024 -1.18485e-023 -1.48106e-024 -3.39844 1.35642 0.0640283 -3.18788e-007 0.782166 -0.000588827 3.39931 -2.13858 0.0634662 1.1399e-023 0 -0 
7.28893e-005 30.3397 -2.63719 0 50.6233 -0 -0.00644406 -2.72767 -0.0187343 -0.0138057 -5.45536 -0.0378406 -0.0138057 -5.45536 -0.0378406 7.79776 8.13003 12.2637 -6.0789 10.1343 24.2813 0.283996 -0.118225 -5.02768 -4.57017 -14.4828 -18.3784 19.2094 5.27837 -67.9101 5.06395 -0.133969 -0.911987 7.1883e-008 7.65163e-008 1.91473e-008 2.87532e-007 3.06065e-007 7.65893e-008 -1.93108e-032 1.39149e-015 7.95139e-016 7.1883e-008 7.65163e-008 1.91473e-008 -0.0146125 -8.94658e-005 -1.86682e-006 6.34499e-032 -4.57205e-015 7.95139e-016 7.1883e-008 7.65163e-008 1.91473e-008 -0.0187801 -0.00117728 5.7608e-005 -1.59028e-015 1.98785e-015 -0 7.1883e-008 7.65163e-008 1.91473e-008 -0.0122518 -0.00324196 0.000674049 3.18055e-015 3.97569e-016 7.95139e-016 7.1883e-008 7.65163e-008 1.91473e-008 2.87532e-007 3.06065e-007 7.65893e-008 -1.93108e-032 1.39149e-015 7.95139e-016 -0.285961 -0.118371 5.02571 4.56582 -14.4835 18.3693 -19.2101 5.28056 67.9075 -5.07189 -0.107083 0.919999 5.03594e-007 -5.35e-007 1.3497e-007 2.87768e-007 -3.05715e-007 7.71255e-008 3.5971e-007 -3.82143e-007 9.64069e-008 5.03594e-007 -5.35e-007 1.3497e-007 0.0149743 -8.90182e-005 2.81445e-006 3.59709e-007 -3.82131e-007 9.64565e-008 5.03594e-007 -5.35e-007 1.3497e-007 0.0189791 -0.00118766 -5.34334e-005 3.5971e-007 -3.82127e-007 9.64664e-008 5.03594e-007 -5.35e-007 1.3497e-007 0.012344 -0.00326699 -0.000677583 3.59714e-007 -3.8213e-007 9.64378e-008 5.03594e-007 -5.35e-007 1.3497e-007 2.87768e-007 -3.05715e-007 7.71255e-008 3.5971e-007 -3.82143e-007 9.64069e-008 -1.61695 1.67654 -0.0893274 0.0108237 1.58059 -0.896195 -3.82573 25.4725 0.869994 -2.36331e-007 -4.36937e-006 -8.33351e-008 1.61497 1.67864 0.0893151 -0.0127923 1.57627 0.894066 3.82276 25.4748 -0.870806 -1.26921e-006 3.44454e-008 1.93355e-007 
8.82563e-005 3.85684 -6.28846 0 89.9969 -0 -0.0151149 -4.8492 -0.0327297 -0.0332009 -9.6984 -0.0671113 -0.033201 -9.6984 -0.0671112 11.4479 13.7283 22.2477 -16.3352 14.411 44.1809 0.490587 -0.208466 -8.93814 -14.6709 -22.8042 -34.639 33.0803 -11.8659 -117.403 8.99962 -0.238105 -1.62129 1.59028e-015 1.59028e-015 -0 7.95139e-016 1.59028e-015 3.18055e-015 7.95139e-016 -1.59028e-015 3.18055e-015 1.59028e-015 1.59028e-015 -0 -0.0146063 -8.96699e-005 -1.32268e-006 8.29775e-008 -1.9835e-007 4.97992e-007 1.59028e-015 1.59028e-015 -0 -0.0187707 -0.00117735 6.51051e-005 7.95139e-016 -3.18055e-015 -3.18055e-015 1.59028e-015 1.59028e-015 -0 -0.012288 -0.00325303 0.000682806 0 1.59028e-015 -0 1.59028e-015 1.59028e-015 -0 7.95139e-016 1.59028e-015 3.18055e-015 7.95139e-016 -1.59028e-015 3.18055e-015 -0.494071 -0.20871 8.93463 14.6608 -22.8082 34.6224 -33.0829 -11.8672 117.397 -9.01432 -0.190327 1.63557 2.02591e-007 -7.4817e-007 -1.70228e-006 -2.95001e-007 1.3632e-007 5.42978e-007 2.90017e-007 -9.28495e-007 -2.22263e-006 2.02591e-007 -7.4817e-007 -1.70228e-006 0.0149864 -8.93618e-005 5.29357e-006 2.02532e-007 -7.48393e-007 -1.70218e-006 2.02591e-007 -7.4817e-007 -1.70228e-006 0.0190128 -0.00119136 -5.6872e-005 2.02501e-007 -7.48448e-007 -1.70216e-006 2.02591e-007 -7.4817e-007 -1.70228e-006 0.0122799 -0.00325029 -0.00067382 2.025e-007 -7.48339e-007 -1.7022e-006 2.02591e-007 -7.4817e-007 -1.70228e-006 -2.95001e-007 1.3632e-007 5.42978e-007 2.90017e-007 -9.28495e-007 -2.22263e-006 -5.49887 0.428313 -0.0913279 0.0193063 4.87247 -1.73329 -5.04271 45.7519 2.13845 -1.34209e-007 3.26479e-006 -8.55311e-007 5.49545 0.417909 0.0912198 -0.0228144 4.89351 1.73007 5.03727 45.7416 -2.1395 3.49818e-007 -3.25831e-006 -1.23303e-007 
9.00682e-005 0.250579 -6.60181 -180 84.3783 -180 -0.0166102 -5.15228 -0.0346832 -0.0365902 -10.3045 -0.0713087 -0.0365902 -10.3045 -0.0713087 11.8013 14.4407 23.7214 -18.0553 14.5828 47.0683 0.519091 -0.221149 -9.49678 -16.545 -23.6328 -37.1311 33.4633 -15.3942 -124.246 9.56165 -0.252975 -1.7226 -1.03766e-006 -9.03878e-009 -1.57057e-006 -8.35761e-007 1.25398e-007 1.00947e-007 -1.03766e-006 -9.03878e-009 -1.57057e-006 -1.03766e-006 -9.03878e-009 -1.57057e-006 -0.0146168 -9.17287e-005 1.49717e-006 -1.0377e-006 -8.83865e-009 -1.57057e-006 -1.03766e-006 -9.03878e-009 -1.57057e-006 -0.0187633 -0.00117596 5.95354e-005 -1.03772e-006 -8.78429e-009 -1.57057e-006 -1.03766e-006 -9.03878e-009 -1.57057e-006 -0.012252 -0.00324256 0.000674073 -1.03773e-006 -8.87373e-009 -1.57054e-006 -1.03766e-006 -9.03878e-009 -1.57057e-006 -8.35761e-007 1.25398e-007 1.00947e-007 -1.03766e-006 -9.03878e-009 -1.57057e-006 -0.522789 -0.221426 9.49305 16.534 -23.6376 37.1136 -33.466 -15.3963 124.239 -9.57735 -0.202217 1.73778 -7.95139e-016 -1.59028e-015 -6.36111e-015 2.38542e-015 3.18055e-015 -6.36111e-015 2.38542e-015 -4.77083e-015 -3.18055e-015 -7.95139e-016 -1.59028e-015 -6.36111e-015 0.0149963 -9.13431e-005 -1.47965e-006 -2.54444e-014 -9.54166e-015 3.18055e-015 -7.95139e-016 -1.59028e-015 -6.36111e-015 0.0190012 -0.00119125 -5.7924e-005 -3.18055e-015 1.59028e-015 6.36111e-015 -7.95139e-016 -1.59028e-015 -6.36111e-015 0.0122806 -0.00325174 -0.000674666 -3.18055e-015 -6.36111e-015 -0 -7.95139e-016 -1.59028e-015 -6.36111e-015 2.38542e-015 3.18055e-015 -6.36111e-015 2.38542e-015 -4.77083e-015 -3.18055e-015 -6.05277 0.130529 -0.0899787 0.020534 5.54166 -1.86641 -5.33172 48.5659 2.41728 4.10902e-007 3.32948e-008 -1.10123e-007 6.04915 0.10542 0.0897509 -0.0242666 5.5924 1.86346 5.32442 48.5407 -2.41692 -8.51398e-007 -1.68016e-008 -1.5335e-006 
